#!OML:ASF F:\VICON\USERDATA\INSTALL\rory3\rory3.ASF
:FULLY-SPECIFIED
:DEGREES
1030
root 3.04517 16.4579 0.628095 10.417 5.44901 6.14469
lowerback -6.13522 2.13103 -2.92065
upperback -0.0175441 3.11478 -1.82433
thorax 3.36703 1.51613 0.0310886
lowerneck 3.63531 7.36537 5.82334
upperneck 57.4212 11.1697 3.74031
head 25.5292 6.16485 3.13966
rclavicle -2.99171e-014 -7.15625e-015
rhumerus -46.3929 2.68162 -87.2404
rradius 59.5682
rwrist -48.2078
rhand -7.17382 -47.9877
rfingers 7.12502
rthumb 18.7036 -77.1085
lclavicle -2.99171e-014 -7.15625e-015
lhumerus -23.8526 -5.62957 87.7089
lradius 36.3863
lwrist 69.2873
lhand -39.1101 -13.0955
lfingers 7.12502
lthumb -12.1098 16.5341
rfemur -51.8784 16.4814 4.95191
rtibia 76.3343
rfoot 6.39527 14.634
rtoes -33.2915
lfemur -29.4858 -7.51801 -31.7212
ltibia 46.8702
lfoot -22.9539 15.0198
ltoes 5.54686
1031
root 3.04734 16.4571 0.627337 10.4069 5.48204 6.17459
lowerback -5.34661 1.78631 -0.34581
upperback 1.04503 2.51238 -2.52824
thorax 4.17894 1.27313 -2.19608
lowerneck 0.602683 8.77932 2.65809
upperneck 57.3239 13.0854 5.57748
head 25.6142 6.21944 5.28926
rclavicle 5.46658e-015 1.09332e-014
rhumerus -43.4458 3.59566 -87.9709
rradius 59.2238
rwrist -48.1406
rhand -7.02487 -48.9084
rfingers 7.12502
rthumb 18.8469 -78.0153
lclavicle 5.46658e-015 1.09332e-014
lhumerus -21.2713 -4.5635 86.6025
lradius 36.3028
lwrist 69.4111
lhand -38.7684 -13.0141
lfingers 7.12502
lthumb -11.7803 16.6346
rfemur -51.8399 16.4366 4.89727
rtibia 76.3076
rfoot 6.65187 14.585
rtoes -32.5457
lfemur -29.4273 -7.55199 -31.7629
ltibia 46.87
lfoot -23.0649 14.9488
ltoes 5.93042
1032
root 3.04936 16.4536 0.624691 10.4238 5.52552 6.14535
lowerback -5.29244 1.78776 -0.250426
upperback 1.02656 2.50689 -2.53928
thorax 4.13361 1.2728 -2.26342
lowerneck 0.579741 8.77301 2.69009
upperneck 57.3378 13.0716 5.58279
head 25.6503 6.21863 5.29237
rclavicle -1.47101e-014 5.56597e-015
rhumerus -43.5382 3.53227 -87.9973
rradius 59.2799
rwrist -48.0836
rhand -6.53948 -49.4279
rfingers 7.12502
rthumb 19.3137 -78.4888
lclavicle -1.47101e-014 5.56597e-015
lhumerus -21.1276 -4.5764 86.602
lradius 36.1044
lwrist 69.3077
lhand -38.5646 -13.3792
lfingers 7.12502
lthumb -11.5838 16.2807
rfemur -51.8478 16.3831 4.90677
rtibia 76.3075
rfoot 6.52456 14.6703
rtoes -32.8609
lfemur -29.4335 -7.601 -31.7367
ltibia 46.8757
lfoot -23.1647 14.9053
ltoes 6.16067
1033
root 3.05163 16.4535 0.628915 10.4403 5.53635 6.14976
lowerback -5.28782 1.79806 -0.20893
upperback 0.97463 2.51736 -2.55997
thorax 4.08029 1.27894 -2.30808
lowerneck 0.76032 8.75514 2.86155
upperneck 57.3019 13.0942 5.40516
head 25.6008 6.25851 5.13926
rclavicle -5.29761e-014 2.92213e-014
rhumerus -43.7058 3.49242 -88.0373
rradius 59.2734
rwrist -48.0234
rhand -6.79513 -49.2313
rfingers 7.12502
rthumb 19.0678 -78.3167
lclavicle -5.29761e-014 2.92213e-014
lhumerus -21.1778 -4.65244 86.6104
lradius 36.0589
lwrist 69.2624
lhand -38.8029 -13.3476
lfingers 7.12502
lthumb -11.8135 16.2992
rfemur -51.8161 16.3405 4.89175
rtibia 76.3035
rfoot 6.30612 14.7557
rtoes -33.4841
lfemur -29.4369 -7.62157 -31.7489
ltibia 46.8697
lfoot -23.1701 14.9279
ltoes 6.08737
1034
root 3.05587 16.4547 0.636843 10.4499 5.60746 6.20721
lowerback -5.39735 1.77854 -0.224396
upperback 0.977635 2.49481 -2.57115
thorax 4.14423 1.2676 -2.30974
lowerneck 0.983478 8.73166 3.07736
upperneck 57.243 13.1491 5.11957
head 25.5386 6.31303 4.91467
rclavicle -1.46604e-014 7.95139e-016
rhumerus -43.7716 3.50104 -88.0457
rradius 59.2614
rwrist -48.0081
rhand -6.6545 -49.7692
rfingers 7.12502
rthumb 19.2031 -78.8411
lclavicle -1.46604e-014 7.95139e-016
lhumerus -21.3217 -4.67618 86.6322
lradius 36.1686
lwrist 69.1658
lhand -39.2022 -13.082
lfingers 7.12502
lthumb -12.1986 16.5423
rfemur -51.7297 16.2327 4.82979
rtibia 76.2982
rfoot 6.16622 15.2206
rtoes -34.7611
lfemur -29.3853 -7.67085 -31.8232
ltibia 46.8383
lfoot -23.1559 14.9692
ltoes 6.00398
1035
root 3.06014 16.4542 0.638712 10.4812 5.70488 6.23535
lowerback -6.24439 1.98757 -2.87302
upperback -0.0167832 2.92335 -1.77849
thorax 3.43274 1.42042 0.0395701
lowerneck 3.88816 7.36208 6.15604
upperneck 57.4217 11.4059 3.18048
head 25.6179 6.28692 2.78182
rclavicle 4.81556e-014 3.97569e-016
rhumerus -46.6646 2.87912 -87.2836
rradius 59.7189
rwrist -48.0825
rhand -6.92168 -49.4755
rfingers 7.12502
rthumb 18.9461 -78.5728
lclavicle 4.81556e-014 3.97569e-016
lhumerus -23.9101 -5.39128 87.7586
lradius 36.2566
lwrist 68.8124
lhand -39.2672 -13.2085
lfingers 7.12502
lthumb -12.2613 16.412
rfemur -51.711 16.1065 4.77899
rtibia 76.2818
rfoot 6.0849 15.6787
rtoes -35.6945
lfemur -29.3736 -7.73488 -31.8654
ltibia 46.8023
lfoot -23.1552 14.9598
ltoes 6.08481
1036
root 3.06338 16.4573 0.64088 10.4956 5.69616 6.2628
lowerback -6.25482 1.87269 -2.98771
upperback 0.0907669 2.77831 -1.66733
thorax 3.54185 1.343 0.207831
lowerneck 3.56277 7.50798 5.80673
upperneck 57.4855 11.6157 3.31892
head 25.7537 6.28277 2.99575
rclavicle 4.20927e-014 3.18055e-015
rhumerus -46.3862 3.26076 -87.2323
rradius 59.716
rwrist -48.1465
rhand -7.58062 -48.6426
rfingers 7.12502
rthumb 18.3123 -77.8007
lclavicle 4.20927e-014 3.18055e-015
lhumerus -23.6842 -4.96059 87.7612
lradius 36.1629
lwrist 68.7157
lhand -39.1226 -13.3394
lfingers 7.12502
lthumb -12.1218 16.2894
rfemur -51.7131 16.0776 4.70089
rtibia 76.2273
rfoot 6.81122 14.8337
rtoes -31.6587
lfemur -29.3375 -7.73286 -31.9151
ltibia 46.7526
lfoot -23.1356 14.9158
ltoes 6.16805
